# 3ds Max Wavefront OBJ Exporter v0.97b - (c)2007 guruware
# File Created: 14.12.2019 20:38:24

mtllib LowPoly Santa Hat Lowpoly 3D model.mtl

#
# object Low_Poly_Santa_Hat_Low_poly_3D_model
#

v  15.5199 -0.5278 -0.9722
v  13.4707 -0.5278 -8.6200
v  14.2042 3.6370 -9.0434
v  16.3668 3.6370 -0.9722
v  7.8721 -0.5278 -14.2185
v  8.2956 3.6370 -14.9520
v  0.2244 -0.5278 -16.2677
v  0.2244 3.6370 -17.1147
v  -7.4234 -0.5278 -14.2185
v  -7.8469 3.6370 -14.9520
v  -13.0220 -0.5278 -8.6200
v  -13.7554 3.6370 -9.0434
v  -15.0712 -0.5278 -0.9722
v  -15.9181 3.6370 -0.9722
v  -13.0220 -0.5278 6.6756
v  -13.7554 3.6370 7.0990
v  -7.4234 -0.5278 12.2741
v  -7.8469 3.6370 13.0076
v  0.2244 -0.5278 14.3233
v  0.2244 3.6370 15.1703
v  7.8721 -0.5278 12.2741
v  8.2956 3.6370 13.0076
v  13.4707 -0.5278 6.6756
v  14.2042 3.6370 7.0991
v  13.4707 7.8019 -8.6200
v  15.5199 7.8019 -0.9722
v  7.8721 7.8019 -14.2185
v  0.2244 7.8019 -16.2677
v  -7.4234 7.8019 -14.2185
v  -13.0220 7.8019 -8.6200
v  -15.0712 7.8019 -0.9722
v  -13.0220 7.8019 6.6756
v  -7.4234 7.8019 12.2741
v  0.2244 7.8019 14.3233
v  7.8721 7.8019 12.2741
v  13.4707 7.8019 6.6756
v  12.2551 7.8802 -7.9181
v  14.1162 7.8802 -0.9722
v  7.1703 7.8802 -13.0029
v  0.2244 7.8802 -14.8641
v  -6.7216 7.8802 -13.0029
v  -11.8063 7.8802 -7.9181
v  -13.6675 7.8802 -0.9722
v  -11.8063 7.8802 5.9737
v  -6.7216 7.8802 11.0585
v  0.2244 7.8802 12.9197
v  7.1703 7.8802 11.0585
v  12.2551 7.8802 5.9737
v  9.3715 10.0201 -6.0136
v  10.6418 9.5607 -0.9722
v  5.9010 11.2753 -9.7041
v  1.1602 12.9900 -11.0549
v  -3.5807 14.7046 -9.7041
v  -7.0512 15.9598 -6.0136
v  -8.3215 16.4193 -0.9722
v  -7.0512 15.9598 4.0692
v  -3.5807 14.7046 7.7597
v  1.1602 12.9900 9.1105
v  5.9010 11.2753 7.7597
v  9.3715 10.0201 4.0692
v  9.9869 13.4840 -5.2307
v  10.8008 12.6841 -0.9722
v  7.7636 15.6693 -8.3482
v  4.7264 18.6544 -9.4893
v  1.6893 21.6395 -8.3482
v  -0.5341 23.8247 -5.2307
v  -1.3479 24.6246 -0.9722
v  -0.5341 23.8247 3.2863
v  1.6893 21.6395 6.4038
v  4.7264 18.6544 7.5449
v  7.7636 15.6693 6.4038
v  9.9869 13.4840 3.2864
v  12.5182 16.9407 -4.3230
v  12.8271 16.0977 -0.9722
v  11.6744 19.2440 -6.7760
v  10.5218 22.3903 -7.6738
v  9.3691 25.5366 -6.7760
v  8.5253 27.8399 -4.3230
v  8.2164 28.6829 -0.9722
v  8.5253 27.8399 2.3786
v  9.3691 25.5366 4.8316
v  10.5218 22.3903 5.7294
v  11.6744 19.2440 4.8316
v  12.5182 16.9407 2.3786
v  19.7269 19.0102 -3.1186
v  19.5442 18.4649 -0.9722
v  20.2260 20.5001 -4.6898
v  20.9078 22.5353 -5.2649
v  21.5896 24.5705 -4.6898
v  22.0887 26.0603 -3.1186
v  22.2714 26.6057 -0.9722
v  22.0887 26.0603 1.1742
v  21.5896 24.5705 2.7454
v  20.9078 22.5353 3.3205
v  20.2260 20.5001 2.7454
v  19.7269 19.0102 1.1742
v  25.9652 16.5843 -2.2744
v  25.7045 16.3524 -0.9722
v  26.6775 17.2178 -3.2277
v  27.6506 18.0833 -3.5767
v  28.6236 18.9487 -3.2277
v  29.3359 19.5823 -2.2744
v  29.5966 19.8142 -0.9722
v  29.3359 19.5823 0.3300
v  28.6236 18.9487 1.2833
v  27.6506 18.0833 1.6323
v  26.6775 17.2178 1.2833
v  25.9652 16.5843 0.3300
v  30.3941 10.3510 -1.5397
v  30.2496 10.3036 -0.9722
v  30.7889 10.4803 -1.9551
v  31.3282 10.6569 -2.1071
v  31.8674 10.8336 -1.9551
v  32.2622 10.9629 -1.5397
v  32.4067 11.0102 -0.9722
v  32.2622 10.9629 -0.4047
v  31.8674 10.8336 0.0107
v  31.3282 10.6569 0.1627
v  30.7889 10.4803 0.0107
v  30.3941 10.3510 -0.4047
v  29.6873 9.7243 -2.0942
v  29.4016 9.6307 -0.9722
v  30.4678 9.9800 -2.9155
v  31.5341 10.3293 -3.2162
v  32.6003 10.6785 -2.9155
v  33.3809 10.9342 -2.0942
v  33.6666 11.0278 -0.9722
v  33.3809 10.9342 0.1498
v  32.6003 10.6786 0.9711
v  31.5341 10.3293 1.2718
v  30.4678 9.9800 0.9711
v  29.6873 9.7243 0.1498
v  28.8136 7.9533 -2.9387
v  28.3112 7.7850 -0.9722
v  30.1817 8.4114 -4.3709
v  32.0413 9.0336 -4.8865
v  33.8920 9.6525 -4.3545
v  35.2423 10.1038 -2.9221
v  35.7358 10.2687 -0.9722
v  35.2424 10.1038 0.9777
v  33.8920 9.6525 2.4101
v  32.0413 9.0336 2.9421
v  30.1817 8.4114 2.4265
v  28.8136 7.9533 0.9943
v  28.6926 5.9320 -3.4023
v  28.0748 5.7266 -0.9722
v  30.3804 6.4929 -5.1812
v  32.6858 7.2592 -5.8326
v  34.9917 8.0256 -5.1821
v  36.6804 8.5869 -3.4031
v  37.2987 8.7924 -0.9722
v  36.6804 8.5869 1.4588
v  34.9917 8.0257 3.2377
v  32.6858 7.2592 3.8882
v  30.3804 6.4930 3.2368
v  28.6926 5.9320 1.4579
v  29.5497 3.9413 -3.3581
v  28.9427 3.7393 -0.9722
v  31.2071 4.4928 -5.1035
v  33.4696 5.2455 -5.7412
v  35.7310 5.9978 -5.1015
v  37.3862 6.5483 -3.3560
v  37.9920 6.7498 -0.9722
v  37.3862 6.5483 1.4117
v  35.7310 5.9978 3.1571
v  33.4696 5.2455 3.7968
v  31.2071 4.4928 3.1592
v  29.5497 3.9413 1.4137
v  31.1125 2.6839 -2.7736
v  30.6553 2.5312 -0.9722
v  32.3621 3.1013 -4.0936
v  34.0707 3.6720 -4.5788
v  35.7817 4.2436 -4.0981
v  37.0362 4.6627 -2.7782
v  37.4959 4.8163 -0.9722
v  37.0362 4.6627 0.8338
v  35.7817 4.2436 2.1537
v  34.0707 3.6720 2.6344
v  32.3621 3.1013 2.1492
v  31.1125 2.6839 0.8292
v  32.4759 2.1681 -2.0764
v  32.2130 2.0806 -1.0444
v  33.2837 2.4517 -3.0278
v  34.4932 2.8376 -3.3013
v  35.4740 3.1642 -3.0224
v  36.3691 3.4760 -2.1648
v  36.6331 3.5492 -0.9044
v  36.3701 3.4616 0.1320
v  35.5393 3.2004 1.0904
v  34.3602 2.7941 1.3572
v  33.3795 2.4677 1.0821
v  32.4616 2.1790 0.2134
v  33.9590 2.0569 -1.3933
v  33.8517 2.0218 -0.9722
v  34.2520 2.1529 -1.7016
v  34.6522 2.2840 -1.8145
v  35.0524 2.4151 -1.7016
v  35.3454 2.5111 -1.3933
v  35.4526 2.5462 -0.9722
v  35.3454 2.5111 -0.5511
v  35.0524 2.4151 -0.2428
v  34.6522 2.2840 -0.1299
v  34.2520 2.1529 -0.2428
v  33.9590 2.0569 -0.5511
v  34.5399 2.1267 -1.2392
v  34.4327 2.0916 -0.8180
v  34.9401 2.2578 -1.1263
v  34.8329 2.2227 -0.7052
v  14.0075 -0.5278 -0.9722
v  12.1609 -0.5278 -7.8638
v  7.1159 -0.5278 -12.9087
v  0.2244 -0.5278 -14.7553
v  -6.6672 -0.5278 -12.9087
v  -11.7122 -0.5278 -7.8638
v  -13.5588 -0.5278 -0.9722
v  -11.7122 -0.5278 5.9194
v  -6.6672 -0.5278 10.9643
v  0.2244 -0.5278 12.8109
v  7.1159 -0.5278 10.9643
v  12.1609 -0.5278 5.9194
v  8.2983 7.9429 -0.9722
v  7.2166 7.9429 -5.0092
v  4.2613 7.9429 -7.9644
v  0.2244 7.9429 -9.0461
v  -3.8126 7.9429 -7.9644
v  -6.7679 7.9429 -5.0092
v  -7.8496 7.9429 -0.9722
v  -6.7679 7.9429 3.0648
v  -3.8126 7.9429 6.0200
v  0.2244 7.9429 7.1017
v  4.2613 7.9429 6.0200
v  7.2166 7.9429 3.0648
v  1.7020 7.9429 -3.5315
v  -2.3350 7.9429 -2.4498
v  2.7837 7.9429 0.5054
v  -1.2533 7.9429 1.5871
# 236 vertices

vn 0.6881 -0.7256 0.0000
vn 0.5959 -0.7256 -0.3440
vn 0.8660 -0.0000 -0.5000
vn 1.0000 0.0000 0.0000
vn 0.3440 -0.7256 -0.5959
vn 0.5000 -0.0000 -0.8660
vn -0.0000 -0.7256 -0.6881
vn -0.0000 0.0000 -1.0000
vn -0.3440 -0.7256 -0.5959
vn -0.5000 0.0000 -0.8660
vn -0.5959 -0.7256 -0.3440
vn -0.8660 -0.0000 -0.5000
vn -0.6881 -0.7256 -0.0000
vn -1.0000 -0.0000 -0.0000
vn -0.5959 -0.7256 0.3440
vn -0.8660 0.0000 0.5000
vn -0.3440 -0.7256 0.5959
vn -0.5000 0.0000 0.8660
vn -0.0000 -0.7256 0.6881
vn -0.0000 -0.0000 1.0000
vn 0.3440 -0.7256 0.5959
vn 0.5000 -0.0000 0.8660
vn 0.5959 -0.7256 0.3440
vn 0.8660 -0.0000 0.5000
vn 0.6106 0.7091 -0.3525
vn 0.7051 0.7091 0.0000
vn 0.3525 0.7091 -0.6106
vn -0.0000 0.7091 -0.7051
vn -0.3525 0.7091 -0.6106
vn -0.6106 0.7091 -0.3525
vn -0.7051 0.7091 -0.0000
vn -0.6106 0.7091 0.3525
vn -0.3525 0.7091 0.6106
vn -0.0000 0.7091 0.7051
vn 0.3525 0.7091 0.6106
vn 0.6106 0.7091 0.3525
vn 0.2264 0.9650 -0.1326
vn 0.2193 0.9757 0.0000
vn 0.1708 0.9366 -0.3058
vn -0.0080 0.9103 -0.4140
vn -0.2268 0.8979 -0.3774
vn -0.3892 0.8946 -0.2194
vn -0.4475 0.8943 -0.0000
vn -0.3892 0.8946 0.2194
vn -0.2268 0.8979 0.3774
vn -0.0080 0.9103 0.4140
vn 0.1708 0.9366 0.3058
vn 0.2264 0.9650 0.1326
vn 0.7886 0.5143 -0.3372
vn 0.8186 0.5744 0.0000
vn 0.5648 0.4238 -0.7081
vn 0.1242 0.4208 -0.8986
vn -0.3454 0.4883 -0.8014
vn -0.6859 0.5593 -0.4656
vn -0.8089 0.5880 -0.0000
vn -0.6859 0.5593 0.4656
vn -0.3454 0.4883 0.8014
vn 0.1242 0.4208 0.8986
vn 0.5648 0.4238 0.7081
vn 0.7886 0.5143 0.3372
vn 0.8532 -0.2365 -0.4648
vn 0.9627 -0.2704 0.0000
vn 0.5495 -0.0790 -0.8318
vn 0.1479 0.1988 -0.9688
vn -0.2334 0.4983 -0.8350
vn -0.5011 0.7208 -0.4789
vn -0.5969 0.8023 -0.0000
vn -0.5011 0.7208 0.4789
vn -0.2334 0.4983 0.8350
vn 0.1479 0.1988 0.9688
vn 0.5495 -0.0790 0.8318
vn 0.8532 -0.2365 0.4648
vn 0.5852 -0.6451 -0.4913
vn 0.6496 -0.7603 0.0000
vn 0.4231 -0.3198 -0.8478
vn 0.2235 0.1273 -0.9664
vn 0.0389 0.5649 -0.8242
vn -0.0900 0.8778 -0.4706
vn -0.1362 0.9907 0.0000
vn -0.0900 0.8778 0.4706
vn 0.0389 0.5649 0.8242
vn 0.2235 0.1273 0.9664
vn 0.4231 -0.3198 0.8478
vn 0.5852 -0.6451 0.4913
vn 0.0502 -0.8686 -0.4930
vn 0.0231 -0.9997 -0.0000
vn 0.1242 -0.5100 -0.8511
vn 0.2241 -0.0248 -0.9742
vn 0.3243 0.4482 -0.8330
vn 0.3994 0.7837 -0.4757
vn 0.4273 0.9041 -0.0000
vn 0.3994 0.7837 0.4757
vn 0.3243 0.4482 0.8330
vn 0.2241 -0.0248 0.9742
vn 0.1242 -0.5100 0.8511
vn 0.0502 -0.8686 0.4930
vn -0.4750 -0.7198 -0.5063
vn -0.5788 -0.8155 -0.0000
vn -0.1991 -0.4622 -0.8642
vn 0.1616 -0.1185 -0.9797
vn 0.5071 0.2162 -0.8343
vn 0.7522 0.4554 -0.4762
vn 0.8406 0.5417 -0.0000
vn 0.7522 0.4554 0.4762
vn 0.5071 0.2162 0.8343
vn 0.1616 -0.1185 0.9797
vn -0.1991 -0.4622 0.8642
vn -0.4750 -0.7198 0.5063
vn -0.8672 0.2344 -0.4393
vn -0.9827 0.1851 -0.0000
vn -0.5605 0.3663 -0.7427
vn -0.1652 0.5386 -0.8262
vn 0.1990 0.6998 -0.6861
vn 0.4445 0.8097 -0.3831
vn 0.5298 0.8481 -0.0000
vn 0.4445 0.8097 0.3831
vn 0.1990 0.6998 0.6861
vn -0.1652 0.5386 0.8262
vn -0.5605 0.3663 0.7427
vn -0.8672 0.2344 0.4393
vn -0.7007 0.6625 -0.2647
vn -0.7703 0.6376 -0.0000
vn -0.5144 0.7291 -0.4515
vn -0.2688 0.8167 -0.5107
vn -0.0329 0.9006 -0.4335
vn 0.1339 0.9598 -0.2467
vn 0.1938 0.9810 -0.0000
vn 0.1339 0.9598 0.2467
vn -0.0329 0.9006 0.4335
vn -0.2688 0.8167 0.5107
vn -0.5144 0.7291 0.4515
vn -0.7007 0.6625 0.2647
vn -0.8497 0.3370 -0.4054
vn -0.9542 0.2993 -0.0000
vn -0.5676 0.4389 -0.6965
vn -0.1894 0.5753 -0.7957
vn 0.1808 0.7088 -0.6819
vn 0.4471 0.8046 -0.3907
vn 0.5436 0.8393 -0.0000
vn 0.4471 0.8046 0.3907
vn 0.1808 0.7088 0.6819
vn -0.1894 0.5753 0.7957
vn -0.5676 0.4389 0.6965
vn -0.8497 0.3370 0.4054
vn -0.8640 -0.1086 -0.4916
vn -0.9879 -0.1550 0.0000
vn -0.5262 0.0180 -0.8502
vn -0.0663 0.1903 -0.9795
vn 0.3914 0.3617 -0.8461
vn 0.7249 0.4867 -0.4875
vn 0.8466 0.5323 -0.0000
vn 0.7249 0.4867 0.4875
vn 0.3914 0.3617 0.8461
vn -0.0663 0.1903 0.9795
vn -0.5262 0.0180 0.8502
vn -0.8640 -0.1086 0.4916
vn -0.6670 -0.5763 -0.4722
vn -0.7843 -0.6204 0.0000
vn -0.3449 -0.4551 -0.8209
vn 0.0989 -0.2882 -0.9525
vn 0.5468 -0.1197 -0.8286
vn 0.8773 0.0046 -0.4800
vn 0.9987 0.0503 -0.0000
vn 0.8773 0.0046 0.4800
vn 0.5468 -0.1197 0.8286
vn 0.0989 -0.2882 0.9525
vn -0.3449 -0.4551 0.8209
vn -0.6670 -0.5763 0.4722
vn -0.3619 -0.8608 -0.3578
vn -0.4502 -0.8929 0.0016
vn -0.1227 -0.7703 -0.6257
vn 0.2162 -0.6506 -0.7280
vn 0.5654 -0.5235 -0.6374
vn 0.8246 -0.4250 -0.3734
vn 0.9188 -0.3947 -0.0017
vn 0.8221 -0.4299 0.3732
vn 0.5647 -0.5198 0.6410
vn 0.2192 -0.6495 0.7281
vn -0.1216 -0.7735 0.6221
vn -0.3662 -0.8589 0.3581
vn -0.1206 -0.9658 -0.2294
vn -0.1740 -0.9847 -0.0120
vn 0.0410 -0.9030 -0.4277
vn 0.2880 -0.8209 -0.4930
vn 0.5024 -0.7452 -0.4385
vn 0.6952 -0.6709 -0.2580
vn 0.7552 -0.6554 0.0120
vn 0.6954 -0.6766 0.2424
vn 0.5143 -0.7351 0.4416
vn 0.2654 -0.8292 0.4919
vn 0.0575 -0.9026 0.4266
vn -0.1248 -0.9617 0.2440
vn 0.0648 -0.9878 -0.1417
vn 0.0301 -0.9995 -0.0009
vn 0.2075 -0.9616 -0.1798
vn 0.2999 -0.9083 -0.2916
vn 0.4386 -0.8612 -0.2567
vn 0.4852 -0.8675 -0.1092
vn 0.5834 -0.8122 0.0008
vn 0.5447 -0.8253 0.1488
vn 0.4080 -0.8937 0.1866
vn 0.2983 -0.9088 0.2919
vn 0.1635 -0.9545 0.2496
vn 0.1377 -0.9852 0.1024
vn 0.2452 -0.9626 -0.1151
vn 0.1989 -0.9778 0.0665
vn 0.4175 -0.9062 -0.0663
vn 0.3714 -0.9213 0.1149
vn -0.4043 -0.9146 -0.0000
vn -0.3502 -0.9146 0.2022
vn -0.2022 -0.9146 0.3502
vn 0.0000 -0.9146 0.4043
vn 0.2022 -0.9146 0.3502
vn 0.3502 -0.9146 0.2022
vn 0.4043 -0.9146 0.0000
vn 0.3502 -0.9146 -0.2022
vn 0.2022 -0.9146 -0.3502
vn 0.0000 -0.9146 -0.4043
vn -0.2022 -0.9146 -0.3502
vn -0.3502 -0.9146 -0.2022
vn -0.5261 -0.8504 -0.0000
vn -0.4556 -0.8504 0.2631
vn -0.2631 -0.8504 0.4556
vn 0.0000 -0.8504 0.5261
vn 0.2630 -0.8504 0.4556
vn 0.4556 -0.8504 0.2631
vn 0.5261 -0.8504 0.0000
vn 0.4556 -0.8504 -0.2630
vn 0.2631 -0.8504 -0.4556
vn 0.0000 -0.8504 -0.5261
vn -0.2631 -0.8504 -0.4556
vn -0.4556 -0.8504 -0.2631
vn -0.0000 -1.0000 -0.0000
# 233 vertex normals

vt 0.2356 0.9980 0.0000
vt 0.1730 0.9341 0.0000
vt 0.2076 0.9044 0.0000
vt 0.2716 0.9679 0.0000
vt 0.1140 0.8605 0.0000
vt 0.1521 0.8347 0.0000
vt 0.0660 0.7780 0.0000
vt 0.1074 0.7579 0.0000
vt 0.0308 0.6891 0.0000
vt 0.0748 0.6753 0.0000
vt 0.0093 0.5958 0.0000
vt 0.0549 0.5887 0.0000
vt 0.0020 0.5003 0.0000
vt 0.0481 0.5002 0.0000
vt 0.0091 0.4048 0.0000
vt 0.0547 0.4116 0.0000
vt 0.0305 0.3115 0.0000
vt 0.0746 0.3250 0.0000
vt 0.0655 0.2224 0.0000
vt 0.1071 0.2424 0.0000
vt 0.1135 0.1398 0.0000
vt 0.1518 0.1656 0.0000
vt 0.1728 0.0657 0.0000
vt 0.2077 0.0962 0.0000
vt 0.2380 0.0020 0.0000
vt 0.2740 0.0341 0.0000
vt 0.2412 0.8734 0.0000
vt 0.3035 0.9320 0.0000
vt 0.1903 0.8085 0.0000
vt 0.1492 0.7375 0.0000
vt 0.1191 0.6614 0.0000
vt 0.1008 0.5816 0.0000
vt 0.0946 0.5000 0.0000
vt 0.1007 0.4184 0.0000
vt 0.1190 0.3386 0.0000
vt 0.1490 0.2625 0.0000
vt 0.1901 0.1916 0.0000
vt 0.2414 0.1274 0.0000
vt 0.3041 0.0723 0.0000
vt 0.2521 0.8631 0.0000
vt 0.3105 0.9177 0.0000
vt 0.2027 0.8002 0.0000
vt 0.1628 0.7312 0.0000
vt 0.1335 0.6571 0.0000
vt 0.1156 0.5796 0.0000
vt 0.1096 0.5002 0.0000
vt 0.1155 0.4209 0.0000
vt 0.1332 0.3433 0.0000
vt 0.1624 0.2692 0.0000
vt 0.2022 0.2003 0.0000
vt 0.2518 0.1380 0.0000
vt 0.3105 0.0865 0.0000
vt 0.3585 0.5253 0.0000
vt 0.3218 0.4587 0.0000
vt 0.3638 0.4406 0.0000
vt 0.3886 0.4952 0.0000
vt 0.2929 0.3912 0.0000
vt 0.3459 0.3790 0.0000
vt 0.2679 0.3152 0.0000
vt 0.3385 0.3144 0.0000
vt 0.2611 0.2299 0.0000
vt 0.3467 0.2517 0.0000
vt 0.2824 0.1444 0.0000
vt 0.3705 0.1951 0.0000
vt 0.3333 0.0711 0.0000
vt 0.4082 0.1475 0.0000
vt 0.4079 0.0215 0.0000
vt 0.4571 0.1116 0.0000
vt 0.4950 0.0020 0.0000
vt 0.5148 0.0896 0.0000
vt 0.5816 0.0118 0.0000
vt 0.5782 0.0835 0.0000
vt 0.6578 0.0412 0.0000
vt 0.6431 0.0937 0.0000
vt 0.7239 0.0753 0.0000
vt 0.7040 0.1150 0.0000
vt 0.7866 0.1142 0.0000
vt 0.7569 0.1420 0.0000
vt 0.4065 0.4346 0.0000
vt 0.4172 0.4827 0.0000
vt 0.4037 0.3846 0.0000
vt 0.4103 0.3370 0.0000
vt 0.4260 0.2937 0.0000
vt 0.4495 0.2550 0.0000
vt 0.4795 0.2212 0.0000
vt 0.5147 0.1929 0.0000
vt 0.5542 0.1711 0.0000
vt 0.5980 0.1570 0.0000
vt 0.6460 0.1523 0.0000
vt 0.6959 0.1576 0.0000
vt 0.7436 0.1708 0.0000
vt 0.4624 0.4413 0.0000
vt 0.4608 0.4790 0.0000
vt 0.4691 0.4049 0.0000
vt 0.4812 0.3717 0.0000
vt 0.4980 0.3414 0.0000
vt 0.5188 0.3134 0.0000
vt 0.5431 0.2877 0.0000
vt 0.5699 0.2647 0.0000
vt 0.5986 0.2452 0.0000
vt 0.6292 0.2296 0.0000
vt 0.6627 0.2188 0.0000
vt 0.6996 0.2139 0.0000
vt 0.7383 0.2144 0.0000
vt 0.5576 0.4702 0.0000
vt 0.5512 0.4937 0.0000
vt 0.5679 0.4487 0.0000
vt 0.5811 0.4296 0.0000
vt 0.5963 0.4121 0.0000
vt 0.6127 0.3952 0.0000
vt 0.6299 0.3785 0.0000
vt 0.6472 0.3622 0.0000
vt 0.6645 0.3465 0.0000
vt 0.6822 0.3321 0.0000
vt 0.7014 0.3198 0.0000
vt 0.7231 0.3105 0.0000
vt 0.7471 0.3053 0.0000
vt 0.6430 0.5000 0.0000
vt 0.6380 0.5141 0.0000
vt 0.6502 0.4869 0.0000
vt 0.6589 0.4748 0.0000
vt 0.6686 0.4634 0.0000
vt 0.6791 0.4523 0.0000
vt 0.6901 0.4415 0.0000
vt 0.7013 0.4310 0.0000
vt 0.7126 0.4211 0.0000
vt 0.7240 0.4119 0.0000
vt 0.7360 0.4038 0.0000
vt 0.7491 0.3972 0.0000
vt 0.7633 0.3927 0.0000
vt 0.7297 0.5344 0.0000
vt 0.7271 0.5404 0.0000
vt 0.7334 0.5288 0.0000
vt 0.7382 0.5235 0.0000
vt 0.7434 0.5185 0.0000
vt 0.7489 0.5136 0.0000
vt 0.7542 0.5085 0.0000
vt 0.7594 0.5033 0.0000
vt 0.7645 0.4981 0.0000
vt 0.7696 0.4931 0.0000
vt 0.7749 0.4887 0.0000
vt 0.7805 0.4851 0.0000
vt 0.7866 0.4828 0.0000
vt 0.9330 0.0020 0.0000
vt 0.9330 0.0207 0.0000
vt 0.9202 0.0207 0.0000
vt 0.9202 0.0020 0.0000
vt 0.9330 0.0396 0.0000
vt 0.9202 0.0396 0.0000
vt 0.9330 0.0586 0.0000
vt 0.9202 0.0586 0.0000
vt 0.9330 0.0773 0.0000
vt 0.9202 0.0773 0.0000
vt 0.9330 0.0962 0.0000
vt 0.9202 0.0962 0.0000
vt 0.9330 0.1152 0.0000
vt 0.9202 0.1152 0.0000
vt 0.9330 0.1338 0.0000
vt 0.9202 0.1338 0.0000
vt 0.9330 0.1528 0.0000
vt 0.9202 0.1528 0.0000
vt 0.9330 0.1718 0.0000
vt 0.9202 0.1718 0.0000
vt 0.9330 0.1904 0.0000
vt 0.9202 0.1904 0.0000
vt 0.9330 0.2094 0.0000
vt 0.9202 0.2094 0.0000
vt 0.9330 0.2284 0.0000
vt 0.9202 0.2284 0.0000
vt 0.8963 0.0207 0.0000
vt 0.8963 0.0020 0.0000
vt 0.8963 0.0396 0.0000
vt 0.8963 0.0586 0.0000
vt 0.8963 0.0773 0.0000
vt 0.8963 0.0962 0.0000
vt 0.8963 0.1152 0.0000
vt 0.8963 0.1338 0.0000
vt 0.8963 0.1528 0.0000
vt 0.8963 0.1718 0.0000
vt 0.8963 0.1904 0.0000
vt 0.8963 0.2094 0.0000
vt 0.8963 0.2284 0.0000
vt 0.8727 0.0207 0.0000
vt 0.8727 0.0020 0.0000
vt 0.8727 0.0396 0.0000
vt 0.8727 0.0586 0.0000
vt 0.8727 0.0773 0.0000
vt 0.8727 0.0962 0.0000
vt 0.8727 0.1152 0.0000
vt 0.8727 0.1338 0.0000
vt 0.8727 0.1528 0.0000
vt 0.8727 0.1718 0.0000
vt 0.8727 0.1904 0.0000
vt 0.8727 0.2094 0.0000
vt 0.8727 0.2284 0.0000
vt 0.8484 0.0207 0.0000
vt 0.8484 0.0020 0.0000
vt 0.8484 0.0396 0.0000
vt 0.8484 0.0586 0.0000
vt 0.8484 0.0773 0.0000
vt 0.8484 0.0962 0.0000
vt 0.8484 0.1152 0.0000
vt 0.8484 0.1338 0.0000
vt 0.8484 0.1528 0.0000
vt 0.8484 0.1718 0.0000
vt 0.8484 0.1904 0.0000
vt 0.8484 0.2094 0.0000
vt 0.8484 0.2284 0.0000
vt 0.8257 0.0207 0.0000
vt 0.8257 0.0020 0.0000
vt 0.8257 0.0396 0.0000
vt 0.8257 0.0586 0.0000
vt 0.8257 0.0773 0.0000
vt 0.8257 0.0962 0.0000
vt 0.8257 0.1152 0.0000
vt 0.8257 0.1338 0.0000
vt 0.8257 0.1528 0.0000
vt 0.8257 0.1718 0.0000
vt 0.8257 0.1904 0.0000
vt 0.8257 0.2094 0.0000
vt 0.8257 0.2284 0.0000
vt 0.8086 0.0207 0.0000
vt 0.8086 0.0020 0.0000
vt 0.8086 0.0396 0.0000
vt 0.8086 0.0586 0.0000
vt 0.8086 0.0773 0.0000
vt 0.8086 0.0962 0.0000
vt 0.8086 0.1152 0.0000
vt 0.8086 0.1338 0.0000
vt 0.8086 0.1528 0.0000
vt 0.8086 0.1718 0.0000
vt 0.8086 0.1904 0.0000
vt 0.8086 0.2094 0.0000
vt 0.8086 0.2284 0.0000
vt 0.7910 0.0207 0.0000
vt 0.7910 0.0020 0.0000
vt 0.7910 0.0396 0.0000
vt 0.7910 0.0586 0.0000
vt 0.7910 0.0773 0.0000
vt 0.7910 0.0962 0.0000
vt 0.7910 0.1152 0.0000
vt 0.7910 0.1338 0.0000
vt 0.7910 0.1528 0.0000
vt 0.7910 0.1718 0.0000
vt 0.7910 0.1904 0.0000
vt 0.7910 0.2094 0.0000
vt 0.7910 0.2284 0.0000
vt 0.0175 0.0175 0.0000
vt 0.0134 0.0199 0.0000
vt 0.0101 0.0142 0.0000
vt 0.0142 0.0118 0.0000
vt 0.0077 0.0101 0.0000
vt 0.0118 0.0077 0.0000
vt 0.0044 0.0044 0.0000
vt 0.0085 0.0020 0.0000
vt 0.0133 0.0020 0.0000
vt 0.0175 0.0044 0.0000
vt 0.0199 0.0086 0.0000
vt 0.0199 0.0134 0.0000
vt 0.0085 0.0199 0.0000
vt 0.0044 0.0175 0.0000
vt 0.0020 0.0133 0.0000
vt 0.0020 0.0086 0.0000
vt 0.6715 0.7396 0.0000
vt 0.6197 0.8294 0.0000
vt 0.6077 0.8175 0.0000
vt 0.6552 0.7353 0.0000
vt 0.6715 0.6360 0.0000
vt 0.6552 0.6404 0.0000
vt 0.6197 0.5462 0.0000
vt 0.6078 0.5582 0.0000
vt 0.5299 0.4943 0.0000
vt 0.5256 0.5107 0.0000
vt 0.4262 0.4943 0.0000
vt 0.4306 0.5107 0.0000
vt 0.3365 0.5462 0.0000
vt 0.3484 0.5581 0.0000
vt 0.2846 0.6360 0.0000
vt 0.3010 0.6403 0.0000
vt 0.2846 0.7396 0.0000
vt 0.3010 0.7352 0.0000
vt 0.3365 0.8294 0.0000
vt 0.3484 0.8174 0.0000
vt 0.4262 0.8813 0.0000
vt 0.4306 0.8649 0.0000
vt 0.5299 0.8813 0.0000
vt 0.5255 0.8649 0.0000
vt 0.5334 0.7473 0.0000
vt 0.5558 0.7117 0.0000
vt 0.5573 0.6696 0.0000
vt 0.5376 0.6324 0.0000
vt 0.5020 0.6101 0.0000
vt 0.4599 0.6085 0.0000
vt 0.4227 0.6283 0.0000
vt 0.4004 0.6639 0.0000
vt 0.3989 0.7060 0.0000
vt 0.4186 0.7431 0.0000
vt 0.4542 0.7655 0.0000
vt 0.4963 0.7671 0.0000
vt 0.5071 0.6811 0.0000
vt 0.4714 0.6588 0.0000
vt 0.4847 0.7168 0.0000
vt 0.4491 0.6945 0.0000
# 303 texture coords

o Low_Poly_Santa_Hat_Low_poly_3D_model
g Low_Poly_Santa_Hat_Low_poly_3D_model
usemtl Low_Poly_Santa_Hat_Low_poly_3D_model
s 1
f 1/1/1 2/2/2 3/3/3 4/4/4 
f 2/2/2 5/5/5 6/6/6 3/3/3 
f 5/5/5 7/7/7 8/8/8 6/6/6 
f 7/7/7 9/9/9 10/10/10 8/8/8 
f 9/9/9 11/11/11 12/12/12 10/10/10 
f 11/11/11 13/13/13 14/14/14 12/12/12 
f 13/13/13 15/15/15 16/16/16 14/14/14 
f 15/15/15 17/17/17 18/18/18 16/16/16 
f 17/17/17 19/19/19 20/20/20 18/18/18 
f 19/19/19 21/21/21 22/22/22 20/20/20 
f 21/21/21 23/23/23 24/24/24 22/22/22 
f 23/23/23 1/25/1 4/26/4 24/24/24 
f 4/4/4 3/3/3 25/27/25 26/28/26 
f 3/3/3 6/6/6 27/29/27 25/27/25 
f 6/6/6 8/8/8 28/30/28 27/29/27 
f 8/8/8 10/10/10 29/31/29 28/30/28 
f 10/10/10 12/12/12 30/32/30 29/31/29 
f 12/12/12 14/14/14 31/33/31 30/32/30 
f 14/14/14 16/16/16 32/34/32 31/33/31 
f 16/16/16 18/18/18 33/35/33 32/34/32 
f 18/18/18 20/20/20 34/36/34 33/35/33 
f 20/20/20 22/22/22 35/37/35 34/36/34 
f 22/22/22 24/24/24 36/38/36 35/37/35 
f 24/24/24 4/26/4 26/39/26 36/38/36 
s 2
f 26/28/26 25/27/25 37/40/37 38/41/38 
f 25/27/25 27/29/27 39/42/39 37/40/37 
f 27/29/27 28/30/28 40/43/40 39/42/39 
f 28/30/28 29/31/29 41/44/41 40/43/40 
f 29/31/29 30/32/30 42/45/42 41/44/41 
f 30/32/30 31/33/31 43/46/43 42/45/42 
f 31/33/31 32/34/32 44/47/44 43/46/43 
f 32/34/32 33/35/33 45/48/45 44/47/44 
f 33/35/33 34/36/34 46/49/46 45/48/45 
f 34/36/34 35/37/35 47/50/47 46/49/46 
f 35/37/35 36/38/36 48/51/48 47/50/47 
f 36/38/36 26/39/26 38/52/38 48/51/48 
f 38/53/38 37/54/37 49/55/49 50/56/50 
f 37/54/37 39/57/39 51/58/51 49/55/49 
f 39/57/39 40/59/40 52/60/52 51/58/51 
f 40/59/40 41/61/41 53/62/53 52/60/52 
f 41/61/41 42/63/42 54/64/54 53/62/53 
f 42/63/42 43/65/43 55/66/55 54/64/54 
f 43/65/43 44/67/44 56/68/56 55/66/55 
f 44/67/44 45/69/45 57/70/57 56/68/56 
f 45/69/45 46/71/46 58/72/58 57/70/57 
f 46/71/46 47/73/47 59/74/59 58/72/58 
f 47/73/47 48/75/48 60/76/60 59/74/59 
f 48/75/48 38/77/38 50/78/50 60/76/60 
f 50/56/50 49/55/49 61/79/61 62/80/62 
f 49/55/49 51/58/51 63/81/63 61/79/61 
f 51/58/51 52/60/52 64/82/64 63/81/63 
f 52/60/52 53/62/53 65/83/65 64/82/64 
f 53/62/53 54/64/54 66/84/66 65/83/65 
f 54/64/54 55/66/55 67/85/67 66/84/66 
f 55/66/55 56/68/56 68/86/68 67/85/67 
f 56/68/56 57/70/57 69/87/69 68/86/68 
f 57/70/57 58/72/58 70/88/70 69/87/69 
f 58/72/58 59/74/59 71/89/71 70/88/70 
f 59/74/59 60/76/60 72/90/72 71/89/71 
f 60/76/60 50/78/50 62/91/62 72/90/72 
f 62/80/62 61/79/61 73/92/73 74/93/74 
f 61/79/61 63/81/63 75/94/75 73/92/73 
f 63/81/63 64/82/64 76/95/76 75/94/75 
f 64/82/64 65/83/65 77/96/77 76/95/76 
f 65/83/65 66/84/66 78/97/78 77/96/77 
f 66/84/66 67/85/67 79/98/79 78/97/78 
f 67/85/67 68/86/68 80/99/80 79/98/79 
f 68/86/68 69/87/69 81/100/81 80/99/80 
f 69/87/69 70/88/70 82/101/82 81/100/81 
f 70/88/70 71/89/71 83/102/83 82/101/82 
f 71/89/71 72/90/72 84/103/84 83/102/83 
f 72/90/72 62/91/62 74/104/74 84/103/84 
f 74/93/74 73/92/73 85/105/85 86/106/86 
f 73/92/73 75/94/75 87/107/87 85/105/85 
f 75/94/75 76/95/76 88/108/88 87/107/87 
f 76/95/76 77/96/77 89/109/89 88/108/88 
f 77/96/77 78/97/78 90/110/90 89/109/89 
f 78/97/78 79/98/79 91/111/91 90/110/90 
f 79/98/79 80/99/80 92/112/92 91/111/91 
f 80/99/80 81/100/81 93/113/93 92/112/92 
f 81/100/81 82/101/82 94/114/94 93/113/93 
f 82/101/82 83/102/83 95/115/95 94/114/94 
f 83/102/83 84/103/84 96/116/96 95/115/95 
f 84/103/84 74/104/74 86/117/86 96/116/96 
f 86/106/86 85/105/85 97/118/97 98/119/98 
f 85/105/85 87/107/87 99/120/99 97/118/97 
f 87/107/87 88/108/88 100/121/100 99/120/99 
f 88/108/88 89/109/89 101/122/101 100/121/100 
f 89/109/89 90/110/90 102/123/102 101/122/101 
f 90/110/90 91/111/91 103/124/103 102/123/102 
f 91/111/91 92/112/92 104/125/104 103/124/103 
f 92/112/92 93/113/93 105/126/105 104/125/104 
f 93/113/93 94/114/94 106/127/106 105/126/105 
f 94/114/94 95/115/95 107/128/107 106/127/106 
f 95/115/95 96/116/96 108/129/108 107/128/107 
f 96/116/96 86/117/86 98/130/98 108/129/108 
f 98/119/98 97/118/97 109/131/109 110/132/110 
f 97/118/97 99/120/99 111/133/111 109/131/109 
f 99/120/99 100/121/100 112/134/112 111/133/111 
f 100/121/100 101/122/101 113/135/113 112/134/112 
f 101/122/101 102/123/102 114/136/114 113/135/113 
f 102/123/102 103/124/103 115/137/115 114/136/114 
f 103/124/103 104/125/104 116/138/116 115/137/115 
f 104/125/104 105/126/105 117/139/117 116/138/116 
f 105/126/105 106/127/106 118/140/118 117/139/117 
f 106/127/106 107/128/107 119/141/119 118/140/118 
f 107/128/107 108/129/108 120/142/120 119/141/119 
f 108/129/108 98/130/98 110/143/110 120/142/120 
s 1
f 110/144/110 109/145/109 121/146/121 122/147/122 
f 109/145/109 111/148/111 123/149/123 121/146/121 
f 111/148/111 112/150/112 124/151/124 123/149/123 
f 112/150/112 113/152/113 125/153/125 124/151/124 
f 113/152/113 114/154/114 126/155/126 125/153/125 
f 114/154/114 115/156/115 127/157/127 126/155/126 
f 115/156/115 116/158/116 128/159/128 127/157/127 
f 116/158/116 117/160/117 129/161/129 128/159/128 
f 117/160/117 118/162/118 130/163/130 129/161/129 
f 118/162/118 119/164/119 131/165/131 130/163/130 
f 119/164/119 120/166/120 132/167/132 131/165/131 
f 120/166/120 110/168/110 122/169/122 132/167/132 
f 122/147/122 121/146/121 133/170/133 134/171/134 
f 121/146/121 123/149/123 135/172/135 133/170/133 
f 123/149/123 124/151/124 136/173/136 135/172/135 
f 124/151/124 125/153/125 137/174/137 136/173/136 
f 125/153/125 126/155/126 138/175/138 137/174/137 
f 126/155/126 127/157/127 139/176/139 138/175/138 
f 127/157/127 128/159/128 140/177/140 139/176/139 
f 128/159/128 129/161/129 141/178/141 140/177/140 
f 129/161/129 130/163/130 142/179/142 141/178/141 
f 130/163/130 131/165/131 143/180/143 142/179/142 
f 131/165/131 132/167/132 144/181/144 143/180/143 
f 132/167/132 122/169/122 134/182/134 144/181/144 
f 134/171/134 133/170/133 145/183/145 146/184/146 
f 133/170/133 135/172/135 147/185/147 145/183/145 
f 135/172/135 136/173/136 148/186/148 147/185/147 
f 136/173/136 137/174/137 149/187/149 148/186/148 
f 137/174/137 138/175/138 150/188/150 149/187/149 
f 138/175/138 139/176/139 151/189/151 150/188/150 
f 139/176/139 140/177/140 152/190/152 151/189/151 
f 140/177/140 141/178/141 153/191/153 152/190/152 
f 141/178/141 142/179/142 154/192/154 153/191/153 
f 142/179/142 143/180/143 155/193/155 154/192/154 
f 143/180/143 144/181/144 156/194/156 155/193/155 
f 144/181/144 134/182/134 146/195/146 156/194/156 
f 146/184/146 145/183/145 157/196/157 158/197/158 
f 145/183/145 147/185/147 159/198/159 157/196/157 
f 147/185/147 148/186/148 160/199/160 159/198/159 
f 148/186/148 149/187/149 161/200/161 160/199/160 
f 149/187/149 150/188/150 162/201/162 161/200/161 
f 150/188/150 151/189/151 163/202/163 162/201/162 
f 151/189/151 152/190/152 164/203/164 163/202/163 
f 152/190/152 153/191/153 165/204/165 164/203/164 
f 153/191/153 154/192/154 166/205/166 165/204/165 
f 154/192/154 155/193/155 167/206/167 166/205/166 
f 155/193/155 156/194/156 168/207/168 167/206/167 
f 156/194/156 146/195/146 158/208/158 168/207/168 
f 158/197/158 157/196/157 169/209/169 170/210/170 
f 157/196/157 159/198/159 171/211/171 169/209/169 
f 159/198/159 160/199/160 172/212/172 171/211/171 
f 160/199/160 161/200/161 173/213/173 172/212/172 
f 161/200/161 162/201/162 174/214/174 173/213/173 
f 162/201/162 163/202/163 175/215/175 174/214/174 
f 163/202/163 164/203/164 176/216/176 175/215/175 
f 164/203/164 165/204/165 177/217/177 176/216/176 
f 165/204/165 166/205/166 178/218/178 177/217/177 
f 166/205/166 167/206/167 179/219/179 178/218/178 
f 167/206/167 168/207/168 180/220/180 179/219/179 
f 168/207/168 158/208/158 170/221/170 180/220/180 
f 170/210/170 169/209/169 181/222/181 182/223/182 
f 169/209/169 171/211/171 183/224/183 181/222/181 
f 171/211/171 172/212/172 184/225/184 183/224/183 
f 172/212/172 173/213/173 185/226/185 184/225/184 
f 173/213/173 174/214/174 186/227/186 185/226/185 
f 174/214/174 175/215/175 187/228/187 186/227/186 
f 175/215/175 176/216/176 188/229/188 187/228/187 
f 176/216/176 177/217/177 189/230/189 188/229/188 
f 177/217/177 178/218/178 190/231/190 189/230/189 
f 178/218/178 179/219/179 191/232/191 190/231/190 
f 179/219/179 180/220/180 192/233/192 191/232/191 
f 180/220/180 170/221/170 182/234/182 192/233/192 
f 182/223/182 181/222/181 193/235/193 194/236/194 
f 181/222/181 183/224/183 195/237/195 193/235/193 
f 183/224/183 184/225/184 196/238/196 195/237/195 
f 184/225/184 185/226/185 197/239/197 196/238/196 
f 185/226/185 186/227/186 198/240/198 197/239/197 
f 186/227/186 187/228/187 199/241/199 198/240/198 
f 187/228/187 188/229/188 200/242/200 199/241/199 
f 188/229/188 189/230/189 201/243/201 200/242/200 
f 189/230/189 190/231/190 202/244/202 201/243/201 
f 190/231/190 191/232/191 203/245/203 202/244/202 
f 191/232/191 192/233/192 204/246/204 203/245/203 
f 192/233/192 182/234/182 194/247/194 204/246/204 
f 194/248/194 193/249/193 205/250/205 206/251/206 
f 206/251/206 205/250/205 207/252/207 208/253/208 
f 208/253/208 207/252/207 199/254/199 200/255/200 
f 200/255/200 201/256/201 202/257/202 208/253/208 
f 208/253/208 202/257/202 203/258/203 206/251/206 
f 206/251/206 203/258/203 204/259/204 194/248/194 
f 193/249/193 195/260/195 196/261/196 205/250/205 
f 205/250/205 196/261/196 197/262/197 207/252/207 
f 207/252/207 197/262/197 198/263/198 199/254/199 
s 2
f 2/264/2 1/265/1 209/266/209 210/267/210 
f 5/268/5 2/264/2 210/267/210 211/269/211 
f 7/270/7 5/268/5 211/269/211 212/271/212 
f 9/272/9 7/270/7 212/271/212 213/273/213 
f 11/274/11 9/272/9 213/273/213 214/275/214 
f 13/276/13 11/274/11 214/275/214 215/277/215 
f 15/278/15 13/276/13 215/277/215 216/279/216 
f 17/280/17 15/278/15 216/279/216 217/281/217 
f 19/282/19 17/280/17 217/281/217 218/283/218 
f 21/284/21 19/282/19 218/283/218 219/285/219 
f 23/286/23 21/284/21 219/285/219 220/287/220 
f 1/265/1 23/286/23 220/287/220 209/266/209 
s 1
f 210/267/210 209/266/209 221/288/221 222/289/222 
f 211/269/211 210/267/210 222/289/222 223/290/223 
f 212/271/212 211/269/211 223/290/223 224/291/224 
f 213/273/213 212/271/212 224/291/224 225/292/225 
f 214/275/214 213/273/213 225/292/225 226/293/226 
f 215/277/215 214/275/214 226/293/226 227/294/227 
f 216/279/216 215/277/215 227/294/227 228/295/228 
f 217/281/217 216/279/216 228/295/228 229/296/229 
f 218/283/218 217/281/217 229/296/229 230/297/230 
f 219/285/219 218/283/218 230/297/230 231/298/231 
f 220/287/220 219/285/219 231/298/231 232/299/232 
f 209/266/209 220/287/220 232/299/232 221/288/221 
s 2
f 225/292/225 224/291/224 233/300/233 234/301/233 
f 234/301/233 233/300/233 235/302/233 236/303/233 
f 236/303/233 235/302/233 231/298/231 230/297/230 
f 230/297/230 229/296/229 228/295/228 236/303/233 
f 236/303/233 228/295/228 227/294/227 234/301/233 
f 234/301/233 227/294/227 226/293/226 225/292/225 
f 224/291/224 223/290/223 222/289/222 233/300/233 
f 233/300/233 222/289/222 221/288/221 235/302/233 
f 235/302/233 221/288/221 232/299/232 231/298/231 
# 234 polygons

